# xmcd
#
# Track frame offsets: 
#        150
#        27083
#        50672
#        71008
#        92051
#        110058
#        137233
#        157527
#        180889
#        202063
#
# Disc length: 3056 seconds
#
# Revision: 0
# Processed by: cddbd v1.5.2PL0 Copyright (c) Steve Scherf et al.
# Submitted via: ExactAudioCopy v1.0b3
#
DISCID=830bee0a
DTITLE=Manh Quynh - Tinh Khuc Hoc Tro 2
DYEAR=1997
DGENRE=
TTITLE0=Noi buon biet ly
TTITLE1=Ky niem mot mua he
TTITLE2=Mot minh thoi
TTITLE3=Uoc tham
TTITLE4=Toi gap em
TTITLE5=Luu My Linh - Vuon tao ngo
TTITLE6=Thuong ca mua ha
TTITLE7=Nhung dong luu niem
TTITLE8=Luu My Linh - Khuya nay anh di roi
TTITLE9=Canh thu mua ha
EXTD=
EXTT0=
EXTT1=
EXTT2=
EXTT3=
EXTT4=
EXTT5=
EXTT6=
EXTT7=
EXTT8=
EXTT9=
PLAYORDER=
